<mxfile host="app.diagrams.net" modified="2023-10-14T17:20:01.404Z" agent="Mozilla/5.0 (Windows NT 10.0; Win64; x64) AppleWebKit/537.36 (KHTML, like Gecko) Chrome/117.0.0.0 Safari/537.36" etag="BebF3hV3Hhu_2PlrU7NB" version="22.0.4" type="device">
  <diagram id="R2lEEEUBdFMjLlhIrx00" name="Page-1">
    <mxGraphModel dx="2270" dy="736" grid="1" gridSize="10" guides="1" tooltips="1" connect="1" arrows="1" fold="1" page="1" pageScale="1" pageWidth="850" pageHeight="1100" math="0" shadow="0" extFonts="Permanent Marker^https://fonts.googleapis.com/css?family=Permanent+Marker">
      <root>
        <mxCell id="0" />
        <mxCell id="1" parent="0" />
        <mxCell id="lkD1G0RWtSxiYWTWBNWS-3" value="Empresa" style="whiteSpace=wrap;html=1;align=center;" parent="1" vertex="1">
          <mxGeometry x="-10" y="500" width="100" height="40" as="geometry" />
        </mxCell>
        <mxCell id="lkD1G0RWtSxiYWTWBNWS-4" value="Nome" style="ellipse;whiteSpace=wrap;html=1;align=center;" parent="1" vertex="1">
          <mxGeometry x="-130" y="455" width="100" height="40" as="geometry" />
        </mxCell>
        <mxCell id="lkD1G0RWtSxiYWTWBNWS-6" value="" style="endArrow=none;html=1;rounded=0;" parent="1" source="lkD1G0RWtSxiYWTWBNWS-4" target="lkD1G0RWtSxiYWTWBNWS-3" edge="1">
          <mxGeometry relative="1" as="geometry">
            <mxPoint x="-60" y="710" as="sourcePoint" />
            <mxPoint x="100" y="710" as="targetPoint" />
          </mxGeometry>
        </mxCell>
        <mxCell id="lkD1G0RWtSxiYWTWBNWS-7" value="Area de Negócio" style="ellipse;whiteSpace=wrap;html=1;align=center;" parent="1" vertex="1">
          <mxGeometry x="80" y="368" width="110" height="50" as="geometry" />
        </mxCell>
        <mxCell id="lkD1G0RWtSxiYWTWBNWS-8" value="" style="endArrow=none;html=1;rounded=0;" parent="1" source="lkD1G0RWtSxiYWTWBNWS-7" target="lkD1G0RWtSxiYWTWBNWS-3" edge="1">
          <mxGeometry relative="1" as="geometry">
            <mxPoint x="-70" y="610" as="sourcePoint" />
            <mxPoint x="-6" y="662" as="targetPoint" />
          </mxGeometry>
        </mxCell>
        <mxCell id="lkD1G0RWtSxiYWTWBNWS-9" value="Email Institucional" style="ellipse;whiteSpace=wrap;html=1;align=center;" parent="1" vertex="1">
          <mxGeometry x="-190" y="354" width="130" height="50" as="geometry" />
        </mxCell>
        <mxCell id="lkD1G0RWtSxiYWTWBNWS-10" value="" style="endArrow=none;html=1;rounded=0;" parent="1" source="lkD1G0RWtSxiYWTWBNWS-9" target="lkD1G0RWtSxiYWTWBNWS-3" edge="1">
          <mxGeometry relative="1" as="geometry">
            <mxPoint y="750" as="sourcePoint" />
            <mxPoint x="160" y="750" as="targetPoint" />
          </mxGeometry>
        </mxCell>
        <mxCell id="lkD1G0RWtSxiYWTWBNWS-11" value="Nº de Colaboradores" style="ellipse;whiteSpace=wrap;html=1;align=center;" parent="1" vertex="1">
          <mxGeometry x="120" y="430" width="130" height="50" as="geometry" />
        </mxCell>
        <mxCell id="lkD1G0RWtSxiYWTWBNWS-12" value="" style="endArrow=none;html=1;rounded=0;" parent="1" source="lkD1G0RWtSxiYWTWBNWS-3" target="lkD1G0RWtSxiYWTWBNWS-11" edge="1">
          <mxGeometry relative="1" as="geometry">
            <mxPoint x="260" y="700" as="sourcePoint" />
            <mxPoint x="420" y="700" as="targetPoint" />
          </mxGeometry>
        </mxCell>
        <mxCell id="lkD1G0RWtSxiYWTWBNWS-16" value="Colaborador" style="whiteSpace=wrap;html=1;align=center;" parent="1" vertex="1">
          <mxGeometry x="390" y="500" width="100" height="40" as="geometry" />
        </mxCell>
        <mxCell id="lkD1G0RWtSxiYWTWBNWS-17" value="" style="endArrow=none;html=1;rounded=0;entryX=0.09;entryY=0.025;entryDx=0;entryDy=0;exitX=0.09;exitY=1;exitDx=0;exitDy=0;exitPerimeter=0;entryPerimeter=0;" parent="1" source="lkD1G0RWtSxiYWTWBNWS-16" target="lkD1G0RWtSxiYWTWBNWS-16" edge="1">
          <mxGeometry width="50" height="50" relative="1" as="geometry">
            <mxPoint x="313.25" y="695" as="sourcePoint" />
            <mxPoint x="363.15" y="659.4" as="targetPoint" />
          </mxGeometry>
        </mxCell>
        <mxCell id="lkD1G0RWtSxiYWTWBNWS-18" value="Nome" style="ellipse;whiteSpace=wrap;html=1;align=center;" parent="1" vertex="1">
          <mxGeometry x="390" y="420" width="100" height="40" as="geometry" />
        </mxCell>
        <mxCell id="lkD1G0RWtSxiYWTWBNWS-19" value="Cargo" style="ellipse;whiteSpace=wrap;html=1;align=center;" parent="1" vertex="1">
          <mxGeometry x="390" y="580" width="100" height="40" as="geometry" />
        </mxCell>
        <mxCell id="lkD1G0RWtSxiYWTWBNWS-20" value="" style="endArrow=none;html=1;rounded=0;" parent="1" source="lkD1G0RWtSxiYWTWBNWS-16" target="lkD1G0RWtSxiYWTWBNWS-18" edge="1">
          <mxGeometry relative="1" as="geometry">
            <mxPoint x="393.25" y="795" as="sourcePoint" />
            <mxPoint x="553.25" y="795" as="targetPoint" />
          </mxGeometry>
        </mxCell>
        <mxCell id="lkD1G0RWtSxiYWTWBNWS-21" value="" style="endArrow=none;html=1;rounded=0;" parent="1" source="lkD1G0RWtSxiYWTWBNWS-16" target="lkD1G0RWtSxiYWTWBNWS-19" edge="1">
          <mxGeometry relative="1" as="geometry">
            <mxPoint x="383.25" y="815" as="sourcePoint" />
            <mxPoint x="543.25" y="815" as="targetPoint" />
          </mxGeometry>
        </mxCell>
        <mxCell id="lkD1G0RWtSxiYWTWBNWS-22" value="Associar" style="shape=rhombus;perimeter=rhombusPerimeter;whiteSpace=wrap;html=1;align=center;" parent="1" vertex="1">
          <mxGeometry x="197" y="497.5" width="90" height="45" as="geometry" />
        </mxCell>
        <mxCell id="lkD1G0RWtSxiYWTWBNWS-29" value="Stand" style="whiteSpace=wrap;html=1;align=center;" parent="1" vertex="1">
          <mxGeometry x="-10" y="190" width="100" height="40" as="geometry" />
        </mxCell>
        <mxCell id="se8sYP7mZZORyI1Ylo9P-1" value="" style="endArrow=none;html=1;rounded=0;exitX=1;exitY=0.5;exitDx=0;exitDy=0;" parent="1" source="lkD1G0RWtSxiYWTWBNWS-22" target="lkD1G0RWtSxiYWTWBNWS-16" edge="1">
          <mxGeometry relative="1" as="geometry">
            <mxPoint x="620" y="520" as="sourcePoint" />
            <mxPoint x="780" y="520" as="targetPoint" />
          </mxGeometry>
        </mxCell>
        <mxCell id="se8sYP7mZZORyI1Ylo9P-2" value="N" style="resizable=0;html=1;whiteSpace=wrap;align=right;verticalAlign=bottom;" parent="se8sYP7mZZORyI1Ylo9P-1" connectable="0" vertex="1">
          <mxGeometry x="1" relative="1" as="geometry">
            <mxPoint x="-4" y="-1" as="offset" />
          </mxGeometry>
        </mxCell>
        <mxCell id="TTHBAslhSPs3njNi4Ohq-2" value="" style="endArrow=none;html=1;rounded=0;exitX=0;exitY=0.5;exitDx=0;exitDy=0;" parent="1" source="lkD1G0RWtSxiYWTWBNWS-22" target="lkD1G0RWtSxiYWTWBNWS-3" edge="1">
          <mxGeometry relative="1" as="geometry">
            <mxPoint x="30" y="720" as="sourcePoint" />
            <mxPoint x="190" y="720" as="targetPoint" />
          </mxGeometry>
        </mxCell>
        <mxCell id="TTHBAslhSPs3njNi4Ohq-3" value="1" style="resizable=0;html=1;whiteSpace=wrap;align=right;verticalAlign=bottom;" parent="TTHBAslhSPs3njNi4Ohq-2" connectable="0" vertex="1">
          <mxGeometry x="1" relative="1" as="geometry">
            <mxPoint x="13" as="offset" />
          </mxGeometry>
        </mxCell>
        <mxCell id="TTHBAslhSPs3njNi4Ohq-5" value="Feira" style="whiteSpace=wrap;html=1;align=center;" parent="1" vertex="1">
          <mxGeometry x="-10" y="762.5" width="100" height="40" as="geometry" />
        </mxCell>
        <mxCell id="TTHBAslhSPs3njNi4Ohq-6" value="Inscrever" style="shape=rhombus;perimeter=rhombusPerimeter;whiteSpace=wrap;html=1;align=center;" parent="1" vertex="1">
          <mxGeometry x="-5" y="640" width="90" height="45" as="geometry" />
        </mxCell>
        <mxCell id="TTHBAslhSPs3njNi4Ohq-7" value="" style="endArrow=none;html=1;rounded=0;exitX=0.5;exitY=1;exitDx=0;exitDy=0;" parent="1" source="TTHBAslhSPs3njNi4Ohq-6" target="TTHBAslhSPs3njNi4Ohq-5" edge="1">
          <mxGeometry relative="1" as="geometry">
            <mxPoint x="-185" y="930.5" as="sourcePoint" />
            <mxPoint x="-25" y="930.5" as="targetPoint" />
          </mxGeometry>
        </mxCell>
        <mxCell id="TTHBAslhSPs3njNi4Ohq-8" value="N" style="resizable=0;html=1;whiteSpace=wrap;align=right;verticalAlign=bottom;" parent="TTHBAslhSPs3njNi4Ohq-7" connectable="0" vertex="1">
          <mxGeometry x="1" relative="1" as="geometry">
            <mxPoint x="-3" as="offset" />
          </mxGeometry>
        </mxCell>
        <mxCell id="TTHBAslhSPs3njNi4Ohq-9" value="" style="endArrow=none;html=1;rounded=0;exitX=0.5;exitY=0;exitDx=0;exitDy=0;edgeStyle=orthogonalEdgeStyle;" parent="1" source="TTHBAslhSPs3njNi4Ohq-6" target="lkD1G0RWtSxiYWTWBNWS-3" edge="1">
          <mxGeometry relative="1" as="geometry">
            <mxPoint x="-320" y="845" as="sourcePoint" />
            <mxPoint x="-570" y="755" as="targetPoint" />
            <Array as="points">
              <mxPoint x="40" y="640" />
            </Array>
          </mxGeometry>
        </mxCell>
        <mxCell id="TTHBAslhSPs3njNi4Ohq-10" value="N" style="resizable=0;html=1;whiteSpace=wrap;align=right;verticalAlign=bottom;" parent="TTHBAslhSPs3njNi4Ohq-9" connectable="0" vertex="1">
          <mxGeometry x="1" relative="1" as="geometry">
            <mxPoint x="-3" y="17" as="offset" />
          </mxGeometry>
        </mxCell>
        <mxCell id="TTHBAslhSPs3njNi4Ohq-12" value="Valor Pagar" style="ellipse;whiteSpace=wrap;html=1;align=center;dashed=1;" parent="1" vertex="1">
          <mxGeometry x="-70" y="700" width="100" height="40" as="geometry" />
        </mxCell>
        <mxCell id="TTHBAslhSPs3njNi4Ohq-17" value="" style="endArrow=none;html=1;rounded=0;exitX=0.5;exitY=0;exitDx=0;exitDy=0;" parent="1" source="TTHBAslhSPs3njNi4Ohq-19" target="lkD1G0RWtSxiYWTWBNWS-29" edge="1">
          <mxGeometry relative="1" as="geometry">
            <mxPoint x="40" y="290" as="sourcePoint" />
            <mxPoint x="180" y="410" as="targetPoint" />
          </mxGeometry>
        </mxCell>
        <mxCell id="TTHBAslhSPs3njNi4Ohq-18" value="1" style="resizable=0;html=1;whiteSpace=wrap;align=right;verticalAlign=bottom;" parent="TTHBAslhSPs3njNi4Ohq-17" connectable="0" vertex="1">
          <mxGeometry x="1" relative="1" as="geometry">
            <mxPoint x="-2" y="17" as="offset" />
          </mxGeometry>
        </mxCell>
        <mxCell id="TTHBAslhSPs3njNi4Ohq-19" value="Associar" style="shape=rhombus;perimeter=rhombusPerimeter;whiteSpace=wrap;html=1;align=center;" parent="1" vertex="1">
          <mxGeometry x="-5" y="331" width="90" height="45" as="geometry" />
        </mxCell>
        <mxCell id="TTHBAslhSPs3njNi4Ohq-20" value="" style="endArrow=none;html=1;rounded=0;exitX=0.5;exitY=1;exitDx=0;exitDy=0;" parent="1" source="TTHBAslhSPs3njNi4Ohq-19" target="lkD1G0RWtSxiYWTWBNWS-3" edge="1">
          <mxGeometry relative="1" as="geometry">
            <mxPoint x="120" y="410" as="sourcePoint" />
            <mxPoint x="120" y="360" as="targetPoint" />
          </mxGeometry>
        </mxCell>
        <mxCell id="TTHBAslhSPs3njNi4Ohq-21" value="1" style="resizable=0;html=1;whiteSpace=wrap;align=right;verticalAlign=bottom;" parent="TTHBAslhSPs3njNi4Ohq-20" connectable="0" vertex="1">
          <mxGeometry x="1" relative="1" as="geometry">
            <mxPoint x="-2" as="offset" />
          </mxGeometry>
        </mxCell>
        <mxCell id="TTHBAslhSPs3njNi4Ohq-24" value="Espaço Disponível" style="ellipse;whiteSpace=wrap;html=1;align=center;" parent="1" vertex="1">
          <mxGeometry x="-135" y="200" width="100" height="40" as="geometry" />
        </mxCell>
        <mxCell id="TTHBAslhSPs3njNi4Ohq-25" value="" style="endArrow=none;html=1;rounded=0;" parent="1" source="TTHBAslhSPs3njNi4Ohq-24" target="lkD1G0RWtSxiYWTWBNWS-29" edge="1">
          <mxGeometry relative="1" as="geometry">
            <mxPoint x="-210" y="210" as="sourcePoint" />
            <mxPoint x="-50" y="210" as="targetPoint" />
          </mxGeometry>
        </mxCell>
        <mxCell id="TTHBAslhSPs3njNi4Ohq-27" value="Localização" style="ellipse;whiteSpace=wrap;html=1;align=center;" parent="1" vertex="1">
          <mxGeometry x="-70" y="110" width="100" height="40" as="geometry" />
        </mxCell>
        <mxCell id="TTHBAslhSPs3njNi4Ohq-29" value="" style="endArrow=none;html=1;rounded=0;" parent="1" source="lkD1G0RWtSxiYWTWBNWS-29" target="TTHBAslhSPs3njNi4Ohq-27" edge="1">
          <mxGeometry width="50" height="50" relative="1" as="geometry">
            <mxPoint x="-170" y="290" as="sourcePoint" />
            <mxPoint x="-120" y="240" as="targetPoint" />
          </mxGeometry>
        </mxCell>
        <mxCell id="TTHBAslhSPs3njNi4Ohq-31" value="" style="endArrow=none;html=1;rounded=0;" parent="1" source="lkD1G0RWtSxiYWTWBNWS-29" target="TTHBAslhSPs3njNi4Ohq-32" edge="1">
          <mxGeometry width="50" height="50" relative="1" as="geometry">
            <mxPoint x="190" y="300" as="sourcePoint" />
            <mxPoint x="128.76524762227882" y="165.6173761888607" as="targetPoint" />
          </mxGeometry>
        </mxCell>
        <mxCell id="TTHBAslhSPs3njNi4Ohq-32" value="Serviços" style="ellipse;shape=doubleEllipse;margin=3;whiteSpace=wrap;html=1;align=center;" parent="1" vertex="1">
          <mxGeometry x="50" y="110" width="100" height="40" as="geometry" />
        </mxCell>
        <mxCell id="TTHBAslhSPs3njNi4Ohq-34" value="ID_STAND" style="ellipse;whiteSpace=wrap;html=1;align=center;" parent="1" vertex="1">
          <mxGeometry x="-140" y="150" width="100" height="40" as="geometry" />
        </mxCell>
        <mxCell id="TTHBAslhSPs3njNi4Ohq-35" value="" style="endArrow=none;html=1;rounded=0;" parent="1" source="lkD1G0RWtSxiYWTWBNWS-29" target="TTHBAslhSPs3njNi4Ohq-34" edge="1">
          <mxGeometry relative="1" as="geometry">
            <mxPoint x="80" y="230" as="sourcePoint" />
            <mxPoint x="240" y="230" as="targetPoint" />
          </mxGeometry>
        </mxCell>
        <mxCell id="TTHBAslhSPs3njNi4Ohq-36" value="Palestra" style="whiteSpace=wrap;html=1;align=center;" parent="1" vertex="1">
          <mxGeometry x="-360" y="500.5" width="100" height="40" as="geometry" />
        </mxCell>
        <mxCell id="TTHBAslhSPs3njNi4Ohq-37" value="Data e Hora" style="ellipse;whiteSpace=wrap;html=1;align=center;" parent="1" vertex="1">
          <mxGeometry x="-490" y="470" width="100" height="40" as="geometry" />
        </mxCell>
        <mxCell id="TTHBAslhSPs3njNi4Ohq-38" value="Sala Atribuida" style="ellipse;whiteSpace=wrap;html=1;align=center;" parent="1" vertex="1">
          <mxGeometry x="-270" y="440" width="100" height="40" as="geometry" />
        </mxCell>
        <mxCell id="TTHBAslhSPs3njNi4Ohq-40" value="Temas" style="ellipse;shape=doubleEllipse;margin=3;whiteSpace=wrap;html=1;align=center;" parent="1" vertex="1">
          <mxGeometry x="-400" y="415" width="100" height="40" as="geometry" />
        </mxCell>
        <mxCell id="TTHBAslhSPs3njNi4Ohq-41" value="ID_PALESTRA" style="ellipse;whiteSpace=wrap;html=1;align=center;" parent="1" vertex="1">
          <mxGeometry x="-500" y="530" width="100" height="40" as="geometry" />
        </mxCell>
        <mxCell id="TTHBAslhSPs3njNi4Ohq-43" value="" style="endArrow=none;html=1;rounded=0;" parent="1" source="TTHBAslhSPs3njNi4Ohq-41" target="TTHBAslhSPs3njNi4Ohq-36" edge="1">
          <mxGeometry relative="1" as="geometry">
            <mxPoint x="90" y="770" as="sourcePoint" />
            <mxPoint x="250" y="770" as="targetPoint" />
          </mxGeometry>
        </mxCell>
        <mxCell id="TTHBAslhSPs3njNi4Ohq-44" value="" style="endArrow=none;html=1;rounded=0;" parent="1" source="TTHBAslhSPs3njNi4Ohq-40" target="TTHBAslhSPs3njNi4Ohq-36" edge="1">
          <mxGeometry relative="1" as="geometry">
            <mxPoint x="170" y="890" as="sourcePoint" />
            <mxPoint x="330" y="890" as="targetPoint" />
          </mxGeometry>
        </mxCell>
        <mxCell id="TTHBAslhSPs3njNi4Ohq-47" value="" style="endArrow=none;html=1;rounded=0;" parent="1" source="TTHBAslhSPs3njNi4Ohq-38" target="TTHBAslhSPs3njNi4Ohq-36" edge="1">
          <mxGeometry relative="1" as="geometry">
            <mxPoint x="270" y="860" as="sourcePoint" />
            <mxPoint x="430" y="860" as="targetPoint" />
          </mxGeometry>
        </mxCell>
        <mxCell id="TTHBAslhSPs3njNi4Ohq-48" value="" style="endArrow=none;html=1;rounded=0;" parent="1" source="TTHBAslhSPs3njNi4Ohq-37" target="TTHBAslhSPs3njNi4Ohq-36" edge="1">
          <mxGeometry relative="1" as="geometry">
            <mxPoint x="180" y="890" as="sourcePoint" />
            <mxPoint x="340" y="890" as="targetPoint" />
          </mxGeometry>
        </mxCell>
        <mxCell id="TTHBAslhSPs3njNi4Ohq-49" value="Dinamizar" style="shape=rhombus;perimeter=rhombusPerimeter;whiteSpace=wrap;html=1;align=center;" parent="1" vertex="1">
          <mxGeometry x="-180" y="497.5" width="90" height="45" as="geometry" />
        </mxCell>
        <mxCell id="TTHBAslhSPs3njNi4Ohq-50" value="" style="endArrow=none;html=1;rounded=0;exitX=1;exitY=0.5;exitDx=0;exitDy=0;" parent="1" source="TTHBAslhSPs3njNi4Ohq-49" target="lkD1G0RWtSxiYWTWBNWS-3" edge="1">
          <mxGeometry relative="1" as="geometry">
            <mxPoint x="-270" y="390" as="sourcePoint" />
            <mxPoint x="-110" y="390" as="targetPoint" />
          </mxGeometry>
        </mxCell>
        <mxCell id="TTHBAslhSPs3njNi4Ohq-51" value="1" style="resizable=0;html=1;whiteSpace=wrap;align=right;verticalAlign=bottom;" parent="TTHBAslhSPs3njNi4Ohq-50" connectable="0" vertex="1">
          <mxGeometry x="1" relative="1" as="geometry">
            <mxPoint x="-3" y="-1" as="offset" />
          </mxGeometry>
        </mxCell>
        <mxCell id="TTHBAslhSPs3njNi4Ohq-52" value="" style="endArrow=none;html=1;rounded=0;exitX=0;exitY=0.5;exitDx=0;exitDy=0;" parent="1" source="TTHBAslhSPs3njNi4Ohq-49" target="TTHBAslhSPs3njNi4Ohq-36" edge="1">
          <mxGeometry relative="1" as="geometry">
            <mxPoint x="-320" y="460" as="sourcePoint" />
            <mxPoint x="-160" y="460" as="targetPoint" />
          </mxGeometry>
        </mxCell>
        <mxCell id="TTHBAslhSPs3njNi4Ohq-53" value="N" style="resizable=0;html=1;whiteSpace=wrap;align=right;verticalAlign=bottom;" parent="TTHBAslhSPs3njNi4Ohq-52" connectable="0" vertex="1">
          <mxGeometry x="1" relative="1" as="geometry">
            <mxPoint x="13" as="offset" />
          </mxGeometry>
        </mxCell>
        <mxCell id="TTHBAslhSPs3njNi4Ohq-55" value="" style="endArrow=none;html=1;rounded=0;entryX=0.909;entryY=-0.017;entryDx=0;entryDy=0;entryPerimeter=0;exitX=0.909;exitY=0.987;exitDx=0;exitDy=0;exitPerimeter=0;" parent="1" source="TTHBAslhSPs3njNi4Ohq-36" target="TTHBAslhSPs3njNi4Ohq-36" edge="1">
          <mxGeometry width="50" height="50" relative="1" as="geometry">
            <mxPoint x="-250" y="550" as="sourcePoint" />
            <mxPoint x="-200" y="340" as="targetPoint" />
          </mxGeometry>
        </mxCell>
        <mxCell id="TTHBAslhSPs3njNi4Ohq-57" value="Estudante" style="whiteSpace=wrap;html=1;align=center;" parent="1" vertex="1">
          <mxGeometry x="-360" y="762.5" width="100" height="40" as="geometry" />
        </mxCell>
        <mxCell id="TTHBAslhSPs3njNi4Ohq-66" value="Inscrever" style="shape=rhombus;perimeter=rhombusPerimeter;whiteSpace=wrap;html=1;align=center;" parent="1" vertex="1">
          <mxGeometry x="-200" y="760" width="90" height="45" as="geometry" />
        </mxCell>
        <mxCell id="TTHBAslhSPs3njNi4Ohq-67" value="" style="endArrow=none;html=1;rounded=0;exitX=1;exitY=0.5;exitDx=0;exitDy=0;edgeStyle=orthogonalEdgeStyle;" parent="1" source="TTHBAslhSPs3njNi4Ohq-66" target="TTHBAslhSPs3njNi4Ohq-5" edge="1">
          <mxGeometry relative="1" as="geometry">
            <mxPoint x="-22.5" y="982.5" as="sourcePoint" />
            <mxPoint x="-42.5" y="832.5" as="targetPoint" />
          </mxGeometry>
        </mxCell>
        <mxCell id="TTHBAslhSPs3njNi4Ohq-68" value="N" style="resizable=0;html=1;whiteSpace=wrap;align=right;verticalAlign=bottom;" parent="TTHBAslhSPs3njNi4Ohq-67" connectable="0" vertex="1">
          <mxGeometry x="1" relative="1" as="geometry">
            <mxPoint x="-3" y="17" as="offset" />
          </mxGeometry>
        </mxCell>
        <mxCell id="TTHBAslhSPs3njNi4Ohq-69" value="" style="endArrow=none;html=1;rounded=0;exitX=0;exitY=0.5;exitDx=0;exitDy=0;" parent="1" source="TTHBAslhSPs3njNi4Ohq-66" target="TTHBAslhSPs3njNi4Ohq-57" edge="1">
          <mxGeometry relative="1" as="geometry">
            <mxPoint x="-220" y="750" as="sourcePoint" />
            <mxPoint x="-322.5" y="832.5" as="targetPoint" />
          </mxGeometry>
        </mxCell>
        <mxCell id="TTHBAslhSPs3njNi4Ohq-70" value="N" style="resizable=0;html=1;whiteSpace=wrap;align=right;verticalAlign=bottom;" parent="TTHBAslhSPs3njNi4Ohq-69" connectable="0" vertex="1">
          <mxGeometry x="1" relative="1" as="geometry">
            <mxPoint x="16" y="-2" as="offset" />
          </mxGeometry>
        </mxCell>
        <mxCell id="TTHBAslhSPs3njNi4Ohq-71" value="Nome" style="ellipse;whiteSpace=wrap;html=1;align=center;" parent="1" vertex="1">
          <mxGeometry x="-490" y="750" width="100" height="40" as="geometry" />
        </mxCell>
        <mxCell id="TTHBAslhSPs3njNi4Ohq-72" value="" style="endArrow=none;html=1;rounded=0;" parent="1" source="TTHBAslhSPs3njNi4Ohq-71" target="TTHBAslhSPs3njNi4Ohq-57" edge="1">
          <mxGeometry relative="1" as="geometry">
            <mxPoint x="-520" y="830" as="sourcePoint" />
            <mxPoint x="-360" y="830" as="targetPoint" />
          </mxGeometry>
        </mxCell>
        <mxCell id="TTHBAslhSPs3njNi4Ohq-73" value="Nº Telefónico" style="ellipse;whiteSpace=wrap;html=1;align=center;" parent="1" vertex="1">
          <mxGeometry x="-490" y="820" width="100" height="40" as="geometry" />
        </mxCell>
        <mxCell id="TTHBAslhSPs3njNi4Ohq-74" value="" style="endArrow=none;html=1;rounded=0;" parent="1" source="TTHBAslhSPs3njNi4Ohq-73" target="TTHBAslhSPs3njNi4Ohq-57" edge="1">
          <mxGeometry relative="1" as="geometry">
            <mxPoint x="-580" y="810" as="sourcePoint" />
            <mxPoint x="-400" y="740" as="targetPoint" />
          </mxGeometry>
        </mxCell>
        <mxCell id="TTHBAslhSPs3njNi4Ohq-75" value="N_CIDADÃO" style="ellipse;whiteSpace=wrap;html=1;align=center;" parent="1" vertex="1">
          <mxGeometry x="-360" y="850" width="100" height="40" as="geometry" />
        </mxCell>
        <mxCell id="TTHBAslhSPs3njNi4Ohq-76" value="" style="endArrow=none;html=1;rounded=0;" parent="1" source="TTHBAslhSPs3njNi4Ohq-75" target="TTHBAslhSPs3njNi4Ohq-57" edge="1">
          <mxGeometry relative="1" as="geometry">
            <mxPoint x="-490" y="810" as="sourcePoint" />
            <mxPoint x="-330" y="810" as="targetPoint" />
          </mxGeometry>
        </mxCell>
        <mxCell id="TTHBAslhSPs3njNi4Ohq-77" value="Caucão" style="whiteSpace=wrap;html=1;align=center;" parent="1" vertex="1">
          <mxGeometry x="-205" y="850" width="100" height="40" as="geometry" />
        </mxCell>
        <mxCell id="TTHBAslhSPs3njNi4Ohq-79" value="" style="endArrow=none;html=1;rounded=0;entryX=0.5;entryY=1;entryDx=0;entryDy=0;" parent="1" source="TTHBAslhSPs3njNi4Ohq-77" target="TTHBAslhSPs3njNi4Ohq-66" edge="1">
          <mxGeometry relative="1" as="geometry">
            <mxPoint x="-432.5" y="870" as="sourcePoint" />
            <mxPoint x="-272.5" y="830" as="targetPoint" />
          </mxGeometry>
        </mxCell>
        <mxCell id="TTHBAslhSPs3njNi4Ohq-80" value="ID_CAUÇÃO" style="ellipse;whiteSpace=wrap;html=1;align=center;" parent="1" vertex="1">
          <mxGeometry x="-90" y="940" width="100" height="40" as="geometry" />
        </mxCell>
        <mxCell id="TTHBAslhSPs3njNi4Ohq-81" value="" style="endArrow=none;html=1;rounded=0;" parent="1" source="TTHBAslhSPs3njNi4Ohq-80" target="TTHBAslhSPs3njNi4Ohq-77" edge="1">
          <mxGeometry relative="1" as="geometry">
            <mxPoint x="-280.95" y="1027" as="sourcePoint" />
            <mxPoint x="-200.95" y="1067" as="targetPoint" />
          </mxGeometry>
        </mxCell>
        <mxCell id="TTHBAslhSPs3njNi4Ohq-82" value="Dias Correspondentes" style="ellipse;whiteSpace=wrap;html=1;align=center;" parent="1" vertex="1">
          <mxGeometry x="-210" y="973" width="110" height="57" as="geometry" />
        </mxCell>
        <mxCell id="TTHBAslhSPs3njNi4Ohq-83" value="" style="endArrow=none;html=1;rounded=0;" parent="1" source="TTHBAslhSPs3njNi4Ohq-82" target="TTHBAslhSPs3njNi4Ohq-77" edge="1">
          <mxGeometry relative="1" as="geometry">
            <mxPoint x="-249.0442013285221" y="988.5414934423254" as="sourcePoint" />
            <mxPoint x="-200.95" y="1057" as="targetPoint" />
          </mxGeometry>
        </mxCell>
        <mxCell id="TTHBAslhSPs3njNi4Ohq-84" value="Valor" style="ellipse;whiteSpace=wrap;html=1;align=center;" parent="1" vertex="1">
          <mxGeometry x="-320" y="940" width="100" height="40" as="geometry" />
        </mxCell>
        <mxCell id="TTHBAslhSPs3njNi4Ohq-85" value="" style="endArrow=none;html=1;rounded=0;" parent="1" source="TTHBAslhSPs3njNi4Ohq-77" target="TTHBAslhSPs3njNi4Ohq-84" edge="1">
          <mxGeometry relative="1" as="geometry">
            <mxPoint x="-340.95" y="1057" as="sourcePoint" />
            <mxPoint x="-180.95" y="1057" as="targetPoint" />
          </mxGeometry>
        </mxCell>
        <mxCell id="kKgGU9R9Vwsmv3_AGkFX-2" value="Inscrever" style="shape=rhombus;perimeter=rhombusPerimeter;whiteSpace=wrap;html=1;align=center;" parent="1" vertex="1">
          <mxGeometry x="-355" y="640" width="90" height="45" as="geometry" />
        </mxCell>
        <mxCell id="kKgGU9R9Vwsmv3_AGkFX-5" value="" style="endArrow=none;html=1;rounded=0;exitX=0.5;exitY=0;exitDx=0;exitDy=0;" parent="1" source="kKgGU9R9Vwsmv3_AGkFX-2" target="TTHBAslhSPs3njNi4Ohq-36" edge="1">
          <mxGeometry relative="1" as="geometry">
            <mxPoint x="-230" y="700" as="sourcePoint" />
            <mxPoint x="-230" y="785" as="targetPoint" />
          </mxGeometry>
        </mxCell>
        <mxCell id="kKgGU9R9Vwsmv3_AGkFX-6" value="N" style="resizable=0;html=1;whiteSpace=wrap;align=right;verticalAlign=bottom;" parent="kKgGU9R9Vwsmv3_AGkFX-5" connectable="0" vertex="1">
          <mxGeometry x="1" relative="1" as="geometry">
            <mxPoint x="-3" y="18" as="offset" />
          </mxGeometry>
        </mxCell>
        <mxCell id="kKgGU9R9Vwsmv3_AGkFX-8" value="" style="endArrow=none;html=1;rounded=0;exitX=0.5;exitY=1;exitDx=0;exitDy=0;" parent="1" source="kKgGU9R9Vwsmv3_AGkFX-2" target="TTHBAslhSPs3njNi4Ohq-57" edge="1">
          <mxGeometry relative="1" as="geometry">
            <mxPoint x="-240" y="720" as="sourcePoint" />
            <mxPoint x="-300" y="720" as="targetPoint" />
          </mxGeometry>
        </mxCell>
        <mxCell id="kKgGU9R9Vwsmv3_AGkFX-9" value="N" style="resizable=0;html=1;whiteSpace=wrap;align=right;verticalAlign=bottom;" parent="kKgGU9R9Vwsmv3_AGkFX-8" connectable="0" vertex="1">
          <mxGeometry x="1" relative="1" as="geometry">
            <mxPoint x="-2" y="-2" as="offset" />
          </mxGeometry>
        </mxCell>
        <mxCell id="kKgGU9R9Vwsmv3_AGkFX-10" value="Lugar Atribuido" style="ellipse;whiteSpace=wrap;html=1;align=center;" parent="1" vertex="1">
          <mxGeometry x="-490" y="620" width="100" height="40" as="geometry" />
        </mxCell>
        <mxCell id="kKgGU9R9Vwsmv3_AGkFX-11" value="Nº Inscrição" style="ellipse;whiteSpace=wrap;html=1;align=center;" parent="1" vertex="1">
          <mxGeometry x="-490" y="670" width="100" height="40" as="geometry" />
        </mxCell>
        <mxCell id="kKgGU9R9Vwsmv3_AGkFX-12" value="" style="endArrow=none;html=1;rounded=0;entryX=0;entryY=0.5;entryDx=0;entryDy=0;" parent="1" source="kKgGU9R9Vwsmv3_AGkFX-11" target="kKgGU9R9Vwsmv3_AGkFX-2" edge="1">
          <mxGeometry relative="1" as="geometry">
            <mxPoint x="-360" y="690" as="sourcePoint" />
            <mxPoint x="-322" y="737" as="targetPoint" />
          </mxGeometry>
        </mxCell>
        <mxCell id="kKgGU9R9Vwsmv3_AGkFX-13" value="" style="endArrow=none;html=1;rounded=0;entryX=0;entryY=0.5;entryDx=0;entryDy=0;" parent="1" source="kKgGU9R9Vwsmv3_AGkFX-10" target="kKgGU9R9Vwsmv3_AGkFX-2" edge="1">
          <mxGeometry relative="1" as="geometry">
            <mxPoint x="-360" y="600" as="sourcePoint" />
            <mxPoint x="-322" y="647" as="targetPoint" />
          </mxGeometry>
        </mxCell>
        <mxCell id="kKgGU9R9Vwsmv3_AGkFX-14" value="Entrevista" style="whiteSpace=wrap;html=1;align=center;" parent="1" vertex="1">
          <mxGeometry x="-251" y="645" width="100" height="40" as="geometry" />
        </mxCell>
        <mxCell id="kKgGU9R9Vwsmv3_AGkFX-16" style="rounded=0;orthogonalLoop=1;jettySize=auto;html=1;exitX=0.5;exitY=0;exitDx=0;exitDy=0;endArrow=none;endFill=0;edgeStyle=orthogonalEdgeStyle;" parent="1" source="kKgGU9R9Vwsmv3_AGkFX-15" target="lkD1G0RWtSxiYWTWBNWS-3" edge="1">
          <mxGeometry relative="1" as="geometry">
            <Array as="points">
              <mxPoint x="-85" y="590" />
              <mxPoint y="590" />
            </Array>
          </mxGeometry>
        </mxCell>
        <mxCell id="kKgGU9R9Vwsmv3_AGkFX-22" value="N" style="edgeLabel;html=1;align=center;verticalAlign=middle;resizable=0;points=[];fontSize=12;" parent="kKgGU9R9Vwsmv3_AGkFX-16" vertex="1" connectable="0">
          <mxGeometry x="0.8545" y="-2" relative="1" as="geometry">
            <mxPoint x="-12" y="-5" as="offset" />
          </mxGeometry>
        </mxCell>
        <mxCell id="kKgGU9R9Vwsmv3_AGkFX-17" style="rounded=0;orthogonalLoop=1;jettySize=auto;html=1;exitX=0;exitY=0.5;exitDx=0;exitDy=0;endArrow=none;endFill=0;" parent="1" source="kKgGU9R9Vwsmv3_AGkFX-15" target="kKgGU9R9Vwsmv3_AGkFX-14" edge="1">
          <mxGeometry relative="1" as="geometry" />
        </mxCell>
        <mxCell id="kKgGU9R9Vwsmv3_AGkFX-18" style="edgeStyle=orthogonalEdgeStyle;rounded=0;orthogonalLoop=1;jettySize=auto;html=1;exitX=0.5;exitY=1;exitDx=0;exitDy=0;endArrow=none;endFill=0;" parent="1" source="kKgGU9R9Vwsmv3_AGkFX-15" target="TTHBAslhSPs3njNi4Ohq-57" edge="1">
          <mxGeometry relative="1" as="geometry">
            <Array as="points">
              <mxPoint x="-85" y="730" />
              <mxPoint x="-280" y="730" />
            </Array>
          </mxGeometry>
        </mxCell>
        <mxCell id="kKgGU9R9Vwsmv3_AGkFX-21" value="N" style="edgeLabel;html=1;align=center;verticalAlign=middle;resizable=0;points=[];fontSize=12;" parent="kKgGU9R9Vwsmv3_AGkFX-18" vertex="1" connectable="0">
          <mxGeometry x="0.8872" y="2" relative="1" as="geometry">
            <mxPoint x="-11" y="4" as="offset" />
          </mxGeometry>
        </mxCell>
        <mxCell id="kKgGU9R9Vwsmv3_AGkFX-15" value="Entrevistar" style="shape=rhombus;perimeter=rhombusPerimeter;whiteSpace=wrap;html=1;align=center;" parent="1" vertex="1">
          <mxGeometry x="-130" y="640" width="90" height="45" as="geometry" />
        </mxCell>
        <mxCell id="kKgGU9R9Vwsmv3_AGkFX-20" style="rounded=0;orthogonalLoop=1;jettySize=auto;html=1;endArrow=none;endFill=0;" parent="1" source="kKgGU9R9Vwsmv3_AGkFX-19" target="kKgGU9R9Vwsmv3_AGkFX-14" edge="1">
          <mxGeometry relative="1" as="geometry" />
        </mxCell>
        <mxCell id="kKgGU9R9Vwsmv3_AGkFX-19" value="Data e Hora" style="ellipse;whiteSpace=wrap;html=1;align=center;" parent="1" vertex="1">
          <mxGeometry x="-251" y="570" width="100" height="40" as="geometry" />
        </mxCell>
        <mxCell id="kKgGU9R9Vwsmv3_AGkFX-23" value="Lugar de Estacionamento" style="whiteSpace=wrap;html=1;align=center;" parent="1" vertex="1">
          <mxGeometry x="320" y="682.5" width="100" height="40" as="geometry" />
        </mxCell>
        <mxCell id="kKgGU9R9Vwsmv3_AGkFX-26" style="edgeStyle=orthogonalEdgeStyle;rounded=0;orthogonalLoop=1;jettySize=auto;html=1;exitX=1;exitY=0.5;exitDx=0;exitDy=0;endArrow=none;endFill=0;" parent="1" source="kKgGU9R9Vwsmv3_AGkFX-24" target="kKgGU9R9Vwsmv3_AGkFX-23" edge="1">
          <mxGeometry relative="1" as="geometry">
            <Array as="points">
              <mxPoint x="365" y="583" />
            </Array>
          </mxGeometry>
        </mxCell>
        <mxCell id="kKgGU9R9Vwsmv3_AGkFX-28" value="&lt;font style=&quot;font-size: 12px;&quot;&gt;N&lt;/font&gt;" style="edgeLabel;html=1;align=center;verticalAlign=middle;resizable=0;points=[];fontSize=12;" parent="kKgGU9R9Vwsmv3_AGkFX-26" vertex="1" connectable="0">
          <mxGeometry x="0.84" y="-1" relative="1" as="geometry">
            <mxPoint x="-8" y="1" as="offset" />
          </mxGeometry>
        </mxCell>
        <mxCell id="kKgGU9R9Vwsmv3_AGkFX-24" value="Estacionar" style="shape=rhombus;perimeter=rhombusPerimeter;whiteSpace=wrap;html=1;align=center;" parent="1" vertex="1">
          <mxGeometry x="230" y="560" width="90" height="45" as="geometry" />
        </mxCell>
        <mxCell id="kKgGU9R9Vwsmv3_AGkFX-30" style="rounded=0;orthogonalLoop=1;jettySize=auto;html=1;endArrow=none;endFill=0;" parent="1" source="kKgGU9R9Vwsmv3_AGkFX-29" target="kKgGU9R9Vwsmv3_AGkFX-23" edge="1">
          <mxGeometry relative="1" as="geometry" />
        </mxCell>
        <mxCell id="kKgGU9R9Vwsmv3_AGkFX-29" value="ID_LUGAR" style="ellipse;whiteSpace=wrap;html=1;align=center;" parent="1" vertex="1">
          <mxGeometry x="320" y="757.5" width="100" height="40" as="geometry" />
        </mxCell>
        <mxCell id="kKgGU9R9Vwsmv3_AGkFX-32" value="" style="endArrow=none;dashed=1;html=1;rounded=0;entryX=0;entryY=0.5;entryDx=0;entryDy=0;edgeStyle=orthogonalEdgeStyle;" parent="1" source="TTHBAslhSPs3njNi4Ohq-12" target="TTHBAslhSPs3njNi4Ohq-6" edge="1">
          <mxGeometry width="50" height="50" relative="1" as="geometry">
            <mxPoint x="120" y="730" as="sourcePoint" />
            <mxPoint x="170" y="680" as="targetPoint" />
          </mxGeometry>
        </mxCell>
        <mxCell id="kKgGU9R9Vwsmv3_AGkFX-38" style="edgeStyle=orthogonalEdgeStyle;rounded=0;orthogonalLoop=1;jettySize=auto;html=1;exitX=0.5;exitY=1;exitDx=0;exitDy=0;endArrow=none;endFill=0;" parent="1" source="kKgGU9R9Vwsmv3_AGkFX-33" target="TTHBAslhSPs3njNi4Ohq-5" edge="1">
          <mxGeometry relative="1" as="geometry">
            <Array as="points">
              <mxPoint x="145" y="783" />
            </Array>
          </mxGeometry>
        </mxCell>
        <mxCell id="kKgGU9R9Vwsmv3_AGkFX-39" value="&lt;font style=&quot;font-size: 12px;&quot;&gt;N&lt;/font&gt;" style="edgeLabel;html=1;align=center;verticalAlign=middle;resizable=0;points=[];" parent="kKgGU9R9Vwsmv3_AGkFX-38" vertex="1" connectable="0">
          <mxGeometry x="0.8039" relative="1" as="geometry">
            <mxPoint x="-6" y="8" as="offset" />
          </mxGeometry>
        </mxCell>
        <mxCell id="kKgGU9R9Vwsmv3_AGkFX-33" value="Patrocionar" style="shape=rhombus;perimeter=rhombusPerimeter;whiteSpace=wrap;html=1;align=center;" parent="1" vertex="1">
          <mxGeometry x="100" y="640" width="90" height="45" as="geometry" />
        </mxCell>
        <mxCell id="kKgGU9R9Vwsmv3_AGkFX-34" value="" style="endArrow=none;html=1;rounded=0;exitX=0.5;exitY=0;exitDx=0;exitDy=0;edgeStyle=orthogonalEdgeStyle;" parent="1" source="kKgGU9R9Vwsmv3_AGkFX-33" target="lkD1G0RWtSxiYWTWBNWS-3" edge="1">
          <mxGeometry relative="1" as="geometry">
            <mxPoint x="70" y="590" as="sourcePoint" />
            <mxPoint x="-70" y="588" as="targetPoint" />
            <Array as="points">
              <mxPoint x="145" y="610" />
              <mxPoint x="60" y="610" />
            </Array>
          </mxGeometry>
        </mxCell>
        <mxCell id="kKgGU9R9Vwsmv3_AGkFX-35" value="N" style="resizable=0;html=1;whiteSpace=wrap;align=right;verticalAlign=bottom;" parent="kKgGU9R9Vwsmv3_AGkFX-34" connectable="0" vertex="1">
          <mxGeometry x="1" relative="1" as="geometry">
            <mxPoint x="-2" y="17" as="offset" />
          </mxGeometry>
        </mxCell>
        <mxCell id="kKgGU9R9Vwsmv3_AGkFX-36" value="" style="endArrow=none;html=1;rounded=0;exitX=0;exitY=0.5;exitDx=0;exitDy=0;edgeStyle=orthogonalEdgeStyle;" parent="1" source="kKgGU9R9Vwsmv3_AGkFX-24" target="lkD1G0RWtSxiYWTWBNWS-3" edge="1">
          <mxGeometry relative="1" as="geometry">
            <mxPoint x="110" y="580" as="sourcePoint" />
            <mxPoint x="180" y="580" as="targetPoint" />
            <Array as="points">
              <mxPoint x="80" y="583" />
            </Array>
          </mxGeometry>
        </mxCell>
        <mxCell id="kKgGU9R9Vwsmv3_AGkFX-37" value="N" style="resizable=0;html=1;whiteSpace=wrap;align=right;verticalAlign=bottom;" parent="kKgGU9R9Vwsmv3_AGkFX-36" connectable="0" vertex="1">
          <mxGeometry x="1" relative="1" as="geometry">
            <mxPoint x="-4" y="17" as="offset" />
          </mxGeometry>
        </mxCell>
        <mxCell id="kKgGU9R9Vwsmv3_AGkFX-40" value="Patrocínio" style="whiteSpace=wrap;html=1;align=center;" parent="1" vertex="1">
          <mxGeometry x="190" y="690" width="100" height="40" as="geometry" />
        </mxCell>
        <mxCell id="kKgGU9R9Vwsmv3_AGkFX-42" style="rounded=0;orthogonalLoop=1;jettySize=auto;html=1;endArrow=none;endFill=0;exitX=1;exitY=0.5;exitDx=0;exitDy=0;edgeStyle=orthogonalEdgeStyle;" parent="1" source="kKgGU9R9Vwsmv3_AGkFX-33" target="kKgGU9R9Vwsmv3_AGkFX-40" edge="1">
          <mxGeometry relative="1" as="geometry">
            <mxPoint x="270" y="660" as="sourcePoint" />
            <mxPoint x="270" y="695" as="targetPoint" />
          </mxGeometry>
        </mxCell>
        <mxCell id="kKgGU9R9Vwsmv3_AGkFX-44" style="rounded=0;orthogonalLoop=1;jettySize=auto;html=1;endArrow=none;endFill=0;" parent="1" source="kKgGU9R9Vwsmv3_AGkFX-43" target="kKgGU9R9Vwsmv3_AGkFX-40" edge="1">
          <mxGeometry relative="1" as="geometry" />
        </mxCell>
        <mxCell id="kKgGU9R9Vwsmv3_AGkFX-43" value="Quantia Despendida" style="ellipse;whiteSpace=wrap;html=1;align=center;" parent="1" vertex="1">
          <mxGeometry x="130" y="820" width="100" height="40" as="geometry" />
        </mxCell>
        <mxCell id="kKgGU9R9Vwsmv3_AGkFX-45" value="Tipo de publicidade" style="ellipse;shape=doubleEllipse;margin=3;whiteSpace=wrap;html=1;align=center;" parent="1" vertex="1">
          <mxGeometry x="250" y="820" width="100" height="40" as="geometry" />
        </mxCell>
        <mxCell id="kKgGU9R9Vwsmv3_AGkFX-46" style="rounded=0;orthogonalLoop=1;jettySize=auto;html=1;endArrow=none;endFill=0;" parent="1" source="kKgGU9R9Vwsmv3_AGkFX-45" target="kKgGU9R9Vwsmv3_AGkFX-40" edge="1">
          <mxGeometry relative="1" as="geometry">
            <mxPoint x="260" y="780" as="sourcePoint" />
            <mxPoint x="302" y="690" as="targetPoint" />
          </mxGeometry>
        </mxCell>
        <mxCell id="kKgGU9R9Vwsmv3_AGkFX-47" value="Ementa" style="whiteSpace=wrap;html=1;align=center;" parent="1" vertex="1">
          <mxGeometry x="260" y="190" width="100" height="40" as="geometry" />
        </mxCell>
        <mxCell id="kKgGU9R9Vwsmv3_AGkFX-48" value="Tipo" style="ellipse;whiteSpace=wrap;html=1;align=center;" parent="1" vertex="1">
          <mxGeometry x="380" y="150" width="100" height="40" as="geometry" />
        </mxCell>
        <mxCell id="kKgGU9R9Vwsmv3_AGkFX-50" value="Custo" style="ellipse;whiteSpace=wrap;html=1;align=center;" parent="1" vertex="1">
          <mxGeometry x="380" y="220" width="100" height="40" as="geometry" />
        </mxCell>
        <mxCell id="kKgGU9R9Vwsmv3_AGkFX-51" value="" style="endArrow=none;html=1;rounded=0;" parent="1" source="kKgGU9R9Vwsmv3_AGkFX-50" target="kKgGU9R9Vwsmv3_AGkFX-47" edge="1">
          <mxGeometry relative="1" as="geometry">
            <mxPoint x="410" y="320" as="sourcePoint" />
            <mxPoint x="344" y="421" as="targetPoint" />
          </mxGeometry>
        </mxCell>
        <mxCell id="kKgGU9R9Vwsmv3_AGkFX-52" value="" style="endArrow=none;html=1;rounded=0;" parent="1" source="kKgGU9R9Vwsmv3_AGkFX-48" target="kKgGU9R9Vwsmv3_AGkFX-47" edge="1">
          <mxGeometry relative="1" as="geometry">
            <mxPoint x="340" y="300" as="sourcePoint" />
            <mxPoint x="274" y="401" as="targetPoint" />
          </mxGeometry>
        </mxCell>
        <mxCell id="kKgGU9R9Vwsmv3_AGkFX-53" value="Servir" style="shape=rhombus;perimeter=rhombusPerimeter;whiteSpace=wrap;html=1;align=center;" parent="1" vertex="1">
          <mxGeometry x="135" y="187.5" width="90" height="45" as="geometry" />
        </mxCell>
        <mxCell id="kKgGU9R9Vwsmv3_AGkFX-55" value="" style="endArrow=none;html=1;rounded=0;exitX=1;exitY=0.5;exitDx=0;exitDy=0;" parent="1" source="kKgGU9R9Vwsmv3_AGkFX-53" target="kKgGU9R9Vwsmv3_AGkFX-47" edge="1">
          <mxGeometry relative="1" as="geometry">
            <mxPoint x="50" y="290" as="sourcePoint" />
            <mxPoint x="50" y="240" as="targetPoint" />
          </mxGeometry>
        </mxCell>
        <mxCell id="kKgGU9R9Vwsmv3_AGkFX-56" value="N" style="resizable=0;html=1;whiteSpace=wrap;align=right;verticalAlign=bottom;" parent="kKgGU9R9Vwsmv3_AGkFX-55" connectable="0" vertex="1">
          <mxGeometry x="1" relative="1" as="geometry">
            <mxPoint x="-4" as="offset" />
          </mxGeometry>
        </mxCell>
        <mxCell id="kKgGU9R9Vwsmv3_AGkFX-57" value="" style="endArrow=none;html=1;rounded=0;exitX=0;exitY=0.5;exitDx=0;exitDy=0;" parent="1" source="kKgGU9R9Vwsmv3_AGkFX-53" target="lkD1G0RWtSxiYWTWBNWS-29" edge="1">
          <mxGeometry relative="1" as="geometry">
            <mxPoint x="210" y="290" as="sourcePoint" />
            <mxPoint x="245" y="290" as="targetPoint" />
          </mxGeometry>
        </mxCell>
        <mxCell id="kKgGU9R9Vwsmv3_AGkFX-58" value="N" style="resizable=0;html=1;whiteSpace=wrap;align=right;verticalAlign=bottom;" parent="kKgGU9R9Vwsmv3_AGkFX-57" connectable="0" vertex="1">
          <mxGeometry x="1" relative="1" as="geometry">
            <mxPoint x="16" as="offset" />
          </mxGeometry>
        </mxCell>
        <mxCell id="y6GsG4o19u8z-TosAP2J-2" value="ID_EMPRESA" style="ellipse;whiteSpace=wrap;html=1;align=center;fontStyle=4;" parent="1" vertex="1">
          <mxGeometry x="-68" y="388" width="100" height="40" as="geometry" />
        </mxCell>
        <mxCell id="y6GsG4o19u8z-TosAP2J-3" value="" style="endArrow=none;html=1;rounded=0;" parent="1" source="y6GsG4o19u8z-TosAP2J-2" target="lkD1G0RWtSxiYWTWBNWS-3" edge="1">
          <mxGeometry relative="1" as="geometry">
            <mxPoint x="-170" y="420" as="sourcePoint" />
            <mxPoint x="-10" y="420" as="targetPoint" />
          </mxGeometry>
        </mxCell>
        <mxCell id="y6GsG4o19u8z-TosAP2J-5" value="ID_COLABORADOR" style="ellipse;whiteSpace=wrap;html=1;align=center;fontStyle=4;" parent="1" vertex="1">
          <mxGeometry x="560" y="495" width="140" height="50" as="geometry" />
        </mxCell>
        <mxCell id="y6GsG4o19u8z-TosAP2J-6" value="" style="endArrow=none;html=1;rounded=0;" parent="1" source="lkD1G0RWtSxiYWTWBNWS-16" target="y6GsG4o19u8z-TosAP2J-5" edge="1">
          <mxGeometry relative="1" as="geometry">
            <mxPoint x="550" y="570" as="sourcePoint" />
            <mxPoint x="550" y="530" as="targetPoint" />
          </mxGeometry>
        </mxCell>
        <mxCell id="y6GsG4o19u8z-TosAP2J-8" value="EDIÇÃO" style="ellipse;whiteSpace=wrap;html=1;align=center;fontStyle=4;" parent="1" vertex="1">
          <mxGeometry x="-10" y="840" width="100" height="40" as="geometry" />
        </mxCell>
        <mxCell id="y6GsG4o19u8z-TosAP2J-9" value="" style="endArrow=none;html=1;rounded=0;" parent="1" source="TTHBAslhSPs3njNi4Ohq-5" target="y6GsG4o19u8z-TosAP2J-8" edge="1">
          <mxGeometry relative="1" as="geometry">
            <mxPoint x="80" y="890" as="sourcePoint" />
            <mxPoint x="240" y="890" as="targetPoint" />
          </mxGeometry>
        </mxCell>
      </root>
    </mxGraphModel>
  </diagram>
</mxfile>
